# Blender v2.80 (sub 75) OBJ File: ''
# www.blender.org
mtllib carne_cocida.mtl
o Line001_Mesh
v -0.321915 0.000000 0.030001
v -0.312149 -0.000000 -0.022856
v -0.323570 -0.000000 -0.060838
v -0.323135 -0.000000 -0.079926
v -0.331986 -0.000000 -0.093659
v -0.388322 -0.000000 -0.105562
v -0.409995 -0.000000 -0.102119
v -0.436466 -0.000000 -0.069665
v -0.439518 -0.000000 -0.033043
v -0.431165 0.000000 0.039023
v -0.311057 0.006919 0.029057
v -0.299117 0.006919 -0.027206
v -0.303595 0.006919 -0.062654
v -0.312550 0.006919 -0.096983
v -0.323371 0.006919 -0.113775
v -0.358447 0.006919 -0.128327
v -0.419865 0.006919 -0.123117
v -0.450209 0.006919 -0.084344
v -0.453941 0.006919 -0.039567
v -0.443685 0.006919 0.040010
v -0.311057 0.023586 0.029057
v -0.299117 0.023586 -0.027206
v -0.303595 0.023586 -0.062654
v -0.312550 0.023586 -0.096983
v -0.323371 0.023586 -0.113775
v -0.358447 0.023586 -0.128327
v -0.419865 0.023586 -0.123117
v -0.450209 0.023586 -0.084344
v -0.453941 0.023586 -0.039567
v -0.443685 0.023586 0.040010
v -0.321915 0.035089 0.030001
v -0.312149 0.035089 -0.022856
v -0.315811 0.035089 -0.051849
v -0.323135 0.035089 -0.079926
v -0.331986 0.035089 -0.093659
v -0.360673 0.035089 -0.105562
v -0.409995 0.035089 -0.102119
v -0.436466 0.035089 -0.069665
v -0.439518 0.035089 -0.033043
v -0.431165 0.035089 0.039023
v -0.372121 0.030640 -0.007493
v -0.391280 0.039760 -0.070280
v -0.361865 -0.003896 -0.050108
v -0.386371 -0.001973 -0.007742
vt 0.510446 0.188340
vt 0.612207 0.342900
vt 0.578262 0.369709
vt 0.489856 0.229739
vt 0.427002 0.118517
vt 0.385542 0.168791
vt 0.334196 0.063688
vt 0.347598 0.126628
vt 0.277948 0.052189
vt 0.301488 0.115323
vt 0.173141 0.088959
vt 0.150193 0.202001
vt 0.044795 0.219919
vt 0.108763 0.249251
vt 0.051595 0.365110
vt 0.114112 0.373449
vt 0.126529 0.477435
vt 0.178405 0.463897
vt 0.313103 0.655359
vt 0.341775 0.617016
vt 0.546604 0.154105
vt 0.654530 0.311616
vt 0.455716 0.076184
vt 0.350001 0.016672
vt 0.273470 0.004615
vt 0.146144 0.048745
vt 0.003510 0.204303
vt 0.005909 0.377541
vt 0.085979 0.507872
vt 0.275225 0.691375
vt 0.797806 0.539837
vt 0.658351 0.458137
vt 0.670113 0.414875
vt 0.840950 0.506981
vt 0.857601 0.605981
vt 0.917190 0.591329
vt 0.906770 0.680073
vt 0.977160 0.686365
vt 0.920214 0.728297
vt 0.992571 0.749638
vt 0.889565 0.818403
vt 0.953050 0.864121
vt 0.781059 0.924167
vt 0.811534 0.996565
vt 0.653247 0.919072
vt 0.655955 0.989528
vt 0.563245 0.852534
vt 0.539926 0.907388
vt 0.417652 0.688371
vt 0.369730 0.702849
vt 0.641690 0.646778
vt 0.746549 0.817303
vt 0.323536 0.274394
vt 0.353783 0.419411
vt 0.332642 0.658807
vt 0.346515 0.616148
vt 0.589504 0.383605
vt 0.627778 0.376361
vn 0.8708 -0.4909 0.0263
vn 0.8431 -0.5070 0.1790
vn 0.2456 -0.9675 0.0598
vn 0.2455 -0.9675 0.0598
vn 0.2886 -0.9573 0.0175
vn 0.8105 -0.5610 -0.1685
vn 0.2127 -0.9762 -0.0423
vn 0.7705 -0.5384 -0.3412
vn 0.3253 -0.9446 -0.0430
vn 0.7705 -0.5384 -0.3411
vn 0.5341 -0.5395 -0.6509
vn 0.7706 -0.5384 -0.3411
vn 0.3252 -0.9447 -0.0430
vn 0.1444 -0.9759 -0.1635
vn 0.5340 -0.5396 -0.6509
vn 0.1296 -0.5655 -0.8145
vn -0.0075 -0.9805 -0.1962
vn -0.4032 -0.5319 -0.7447
vn -0.0075 -0.9805 -0.1961
vn -0.1060 -0.9807 -0.1641
vn -0.7856 -0.5283 -0.3222
vn -0.4031 -0.5319 -0.7447
vn -0.1059 -0.9807 -0.1641
vn -0.2247 -0.9721 -0.0668
vn -0.7856 -0.5283 -0.3221
vn -0.8557 -0.5174 0.0130
vn -0.2248 -0.9721 -0.0668
vn -0.2575 -0.9662 0.0122
vn -0.8493 -0.5171 0.1063
vn -0.8557 -0.5173 0.0130
vn -0.2574 -0.9662 0.0122
vn -0.2522 -0.9668 0.0402
vn 0.9184 0.3947 0.0292
vn 0.9031 0.3887 0.1823
vn 0.8432 -0.5070 0.1789
vn 0.9184 0.3946 0.0291
vn 0.8885 0.4234 -0.1772
vn 0.9184 0.3947 0.0291
vn 0.8105 -0.5610 -0.1684
vn 0.8114 0.4511 -0.3717
vn 0.8885 0.4234 -0.1771
vn 0.5570 0.4729 -0.6827
vn 0.1334 0.4912 -0.8608
vn 0.1335 0.4912 -0.8608
vn -0.4160 0.4735 -0.7764
vn 0.1297 -0.5655 -0.8145
vn -0.4159 0.4735 -0.7764
vn -0.8241 0.4529 -0.3402
vn -0.4031 -0.5318 -0.7447
vn -0.7856 -0.5282 -0.3222
vn -0.8241 0.4528 -0.3402
vn -0.9064 0.4222 0.0115
vn -0.9064 0.4223 0.0115
vn -0.9059 0.4072 0.1168
vn -0.8557 -0.5174 0.0131
vn -0.9059 0.4072 0.1167
vn 0.3833 0.9225 0.0458
vn 0.3135 0.9491 0.0318
vn 0.9032 0.3887 0.1823
vn 0.9184 0.3946 0.0292
vn 0.3750 0.9247 -0.0652
vn 0.3425 0.9307 -0.1284
vn 0.2263 0.9446 -0.2376
vn 0.3426 0.9307 -0.1284
vn 0.8114 0.4510 -0.3717
vn 0.2264 0.9446 -0.2375
vn 0.0557 0.9510 -0.3042
vn 0.5571 0.4729 -0.6827
vn -0.1560 0.9451 -0.2872
vn -0.1560 0.9451 -0.2871
vn -0.3621 0.9258 -0.1084
vn -0.3527 0.9350 0.0360
vn -0.9064 0.4222 0.0116
vn -0.3312 0.9433 0.0207
vn -0.9064 0.4223 0.0116
vn 0.3135 0.9491 0.0319
vn -0.0093 0.9996 0.0256
vn -0.3311 0.9434 0.0207
vn -0.0191 0.9998 -0.0080
vn -0.0092 0.9996 0.0256
vn 0.3426 0.9307 -0.1283
vn 0.2263 0.9446 -0.2375
vn 0.0098 -0.9999 -0.0044
vn -0.0118 -0.9997 0.0225
vn -0.0117 -0.9997 0.0225
vn 0.0099 -0.9999 -0.0044
vn 0.0823 -0.0041 0.9966
vn 0.0786 0.0000 0.9969
vn 0.0823 0.0067 0.9966
vn 0.0818 -0.0014 0.9966
vn 0.0828 0.0017 0.9966
vn 0.0866 0.0000 0.9962
usemtl 02_-_Default
s off
f 12/1/1 11/2/2 1/3/3
f 1/3/4 2/4/5 12/1/1
f 13/5/6 12/1/1 2/4/5
f 2/4/5 3/6/7 13/5/6
f 14/7/8 13/5/6 3/6/7
f 3/6/7 4/8/9 14/7/10
f 15/9/11 14/7/12 4/8/9
f 4/8/13 5/10/14 15/9/15
f 16/11/16 15/9/15 5/10/14
f 5/10/14 6/12/17 16/11/16
f 17/13/18 16/11/16 6/12/17
f 6/12/19 7/14/20 17/13/18
f 18/15/21 17/13/22 7/14/23
f 7/14/20 8/16/24 18/15/25
f 19/17/26 18/15/21 8/16/27
f 8/16/27 9/18/28 19/17/26
f 20/19/29 19/17/30 9/18/31
f 9/18/31 10/20/32 20/19/29
f 22/21/33 21/22/34 11/2/35
f 11/2/2 12/1/1 22/21/36
f 23/23/37 22/21/38 12/1/1
f 12/1/1 13/5/39 23/23/37
f 24/24/40 23/23/41 13/5/6
f 13/5/6 14/7/8 24/24/40
f 25/25/42 24/24/40 14/7/8
f 14/7/10 15/9/11 25/25/42
f 26/26/43 25/25/42 15/9/15
f 15/9/15 16/11/16 26/26/44
f 27/27/45 26/26/43 16/11/16
f 16/11/46 17/13/18 27/27/47
f 28/28/48 27/27/47 17/13/22
f 17/13/49 18/15/50 28/28/51
f 29/29/52 28/28/51 18/15/25
f 18/15/25 19/17/26 29/29/53
f 30/30/54 29/29/52 19/17/55
f 19/17/55 20/19/29 30/30/56
f 32/31/57 31/32/58 21/33/59
f 21/33/59 22/34/60 32/31/57
f 33/35/61 32/31/57 22/34/60
f 22/34/36 23/36/37 33/35/61
f 34/37/62 33/35/61 23/36/41
f 23/36/41 24/38/40 34/37/62
f 35/39/63 34/37/64 24/38/65
f 24/38/40 25/40/42 35/39/66
f 36/41/67 35/39/63 25/40/68
f 25/40/68 26/42/43 36/41/67
f 37/43/69 36/41/67 26/42/43
f 26/42/43 27/44/47 37/43/70
f 38/45/71 37/43/69 27/44/47
f 27/44/47 28/46/51 38/45/71
f 39/47/72 38/45/71 28/46/51
f 28/46/51 29/48/73 39/47/72
f 40/49/74 39/47/72 29/48/75
f 29/48/53 30/50/54 40/49/74
f 31/32/76 41/51/77 40/49/78
f 32/31/57 42/52/79 41/51/77
f 41/51/80 39/47/72 40/49/74
f 31/32/76 32/31/57 41/51/80
f 33/35/61 34/37/64 42/52/79
f 34/37/81 35/39/82 42/52/79
f 35/39/82 36/41/67 42/52/79
f 32/31/57 33/35/61 42/52/79
f 42/52/79 39/47/72 41/51/77
f 42/52/79 38/45/71 39/47/72
f 37/43/69 38/45/71 42/52/79
f 36/41/67 37/43/69 42/52/79
f 7/14/20 6/12/17 43/53/83
f 10/20/32 44/54/84 1/3/3
f 9/18/31 8/16/24 44/54/85
f 8/16/24 7/14/20 44/54/84
f 7/14/20 43/53/83 44/54/84
f 6/12/19 5/10/14 43/53/83
f 5/10/14 4/8/13 43/53/83
f 4/8/9 3/6/7 43/53/86
f 3/6/7 2/4/5 43/53/83
f 10/20/32 9/18/28 44/54/84
f 21/33/87 31/32/87 40/49/87
f 40/49/88 30/50/88 20/55/88
f 20/55/89 10/56/89 1/57/89
f 40/49/90 20/55/90 1/57/90
f 21/33/91 40/49/91 1/57/91
f 11/58/92 21/33/92 1/57/92
f 44/54/84 2/4/5 1/3/4
f 44/54/84 43/53/83 2/4/5
