# Blender v2.80 (sub 75) OBJ File: ''
# www.blender.org
mtllib masa.mtl
o Line002.001_Mesh.002
v 0.061143 0.006655 -0.100020
v 0.067486 0.009865 -0.102620
v 0.071013 0.017334 -0.104101
v 0.073457 0.026259 -0.105290
v 0.071529 0.038794 -0.106421
v 0.063869 0.048475 -0.105856
v 0.050492 0.060434 -0.104263
v -0.015376 0.061480 -0.105041
v -0.026818 0.051263 -0.106613
v -0.035165 0.040373 -0.106551
v -0.035698 0.026852 -0.105424
v -0.031406 0.018594 -0.103584
v -0.024365 0.010600 -0.102810
v -0.016280 0.006660 -0.100578
v 0.077695 0.003454 -0.087526
v 0.089174 0.008046 -0.087994
v 0.098673 0.015490 -0.087831
v 0.104726 0.028163 -0.087263
v 0.099010 0.046380 -0.088728
v 0.086457 0.061550 -0.090540
v 0.063336 0.076240 -0.087263
v 0.033999 0.082771 -0.087263
v -0.001382 0.082771 -0.087263
v -0.028200 0.074786 -0.087263
v -0.046373 0.062777 -0.089142
v -0.058209 0.044733 -0.090626
v -0.060429 0.030036 -0.090353
v -0.055777 0.017443 -0.087919
v -0.047652 0.008508 -0.086807
v -0.040281 0.003872 -0.087772
v 0.106051 0.002445 -0.062196
v 0.116419 0.006033 -0.062196
v 0.122958 0.013937 -0.062196
v 0.128168 0.030057 -0.062664
v 0.122480 0.055740 -0.062196
v 0.103339 0.075554 -0.062196
v 0.076862 0.087308 -0.062196
v 0.039697 0.099256 -0.062196
v -0.005123 0.098201 -0.061864
v -0.036135 0.088850 -0.062196
v -0.065082 0.071987 -0.062137
v -0.081693 0.053546 -0.062724
v -0.086635 0.032936 -0.062196
v -0.082236 0.019262 -0.061741
v -0.073497 0.007156 -0.062196
v -0.067454 0.002412 -0.062196
v 0.117425 0.001530 -0.037128
v 0.129056 0.004109 -0.037128
v 0.138374 0.013425 -0.037128
v 0.144313 0.031923 -0.037128
v 0.135855 0.056960 -0.037128
v 0.114384 0.079871 -0.037128
v 0.084682 0.096684 -0.037128
v 0.042992 0.105762 -0.037128
v -0.007287 0.104418 -0.037128
v -0.042435 0.098078 -0.037128
v -0.076947 0.075932 -0.037128
v -0.092717 0.057604 -0.037128
v -0.100971 0.034254 -0.037128
v -0.099539 0.021360 -0.037128
v -0.090585 0.006176 -0.037128
v -0.081442 0.001731 -0.037128
v 0.124008 0.000777 -0.012061
v 0.136369 0.003229 -0.012061
v 0.145501 0.012018 -0.012061
v 0.152296 0.032235 -0.012061
v 0.143595 0.057563 -0.012061
v 0.120775 0.081853 -0.012061
v 0.089207 0.100033 -0.012061
v 0.044898 0.110890 -0.012061
v -0.008539 0.108371 -0.012061
v -0.049044 0.100865 -0.012061
v -0.082575 0.079388 -0.012061
v -0.100451 0.058248 -0.012061
v -0.108040 0.033430 -0.012061
v -0.106518 0.021098 -0.012061
v -0.099222 0.005835 -0.012061
v -0.087353 0.001947 -0.012061
v 0.126913 0.000837 0.013006
v 0.140625 0.003312 0.013006
v 0.147234 0.011331 0.013006
v 0.152994 0.032062 0.013006
v 0.145557 0.057640 0.013006
v 0.121336 0.083072 0.013006
v 0.089963 0.098804 0.013006
v 0.045217 0.108694 0.013006
v -0.008748 0.108780 0.013006
v -0.049653 0.100844 0.013006
v -0.083514 0.079681 0.013006
v -0.101566 0.057348 0.013006
v -0.110496 0.033269 0.013006
v -0.108960 0.019933 0.013006
v -0.101055 0.006273 0.013006
v -0.088339 0.002019 0.013006
v 0.122959 0.000357 0.044574
v 0.135204 0.002617 0.044574
v 0.142927 0.010717 0.044574
v 0.147936 0.030635 0.044574
v 0.142362 0.056681 0.044574
v 0.119757 0.080417 0.044574
v 0.088486 0.096994 0.044574
v 0.044595 0.106756 0.044574
v -0.008339 0.105848 0.044574
v -0.048464 0.098689 0.044574
v -0.081678 0.076809 0.044574
v -0.099386 0.057312 0.044574
v -0.108145 0.034425 0.044574
v -0.106638 0.018413 0.044574
v -0.099386 0.005321 0.044574
v -0.086411 0.001435 0.044574
v 0.009470 0.006658 -0.105646
v 0.035306 0.006657 -0.105238
v 0.043153 0.002602 -0.094077
v -0.000071 0.002842 -0.094198
v 0.048216 0.002239 -0.062196
v -0.009619 0.002033 -0.062196
v 0.051136 0.001597 -0.037128
v -0.015153 0.001664 -0.037128
v 0.053554 0.001527 -0.012061
v -0.016899 0.001917 -0.012061
v 0.055162 0.001590 0.013006
v -0.016589 0.001984 0.013006
v 0.053169 0.000716 0.044574
v -0.016621 0.001076 0.044574
v 0.004758 0.064152 -0.107006
v 0.029322 0.063796 -0.107006
v 0.002778 0.047701 -0.115703
v 0.032833 0.048988 -0.114459
v 0.000400 0.036651 -0.116796
v 0.035965 0.037338 -0.117021
v 0.001666 0.026655 -0.116419
v 0.037562 0.026457 -0.116267
v 0.002734 0.018174 -0.113201
v 0.036873 0.017754 -0.113373
v 0.004945 0.010496 -0.110267
v 0.036442 0.010392 -0.110216
vt 0.253848 0.263796
vt 0.397823 0.017710
vt 0.377753 0.265922
vt 0.082180 0.195825
vt 0.234462 0.018552
vt 0.159928 0.247040
vt 0.561184 0.016869
vt 0.606601 0.148710
vt 0.553688 0.204269
vt 0.607924 0.041120
vt 0.589846 0.022160
vt 0.619649 0.087742
vt 0.480492 0.243072
vt 0.071101 0.019394
vt 0.040732 0.150188
vt 0.020228 0.096614
vt 0.023755 0.059134
vt 0.040732 0.028488
vt 0.288940 0.816532
vt 0.328212 0.796078
vt 0.293993 0.830930
vt 0.328201 0.772938
vt 0.277905 0.803259
vt 0.326120 0.750605
vt 0.265064 0.788473
vt 0.315360 0.726347
vt 0.281057 0.710169
vt 0.241915 0.773170
vt 0.241750 0.704078
vt 0.215604 0.766309
vt 0.183212 0.696747
vt 0.175345 0.758269
vt 0.117265 0.707907
vt 0.129964 0.776983
vt 0.078233 0.799542
vt 0.038718 0.729781
vt 0.951862 0.491732
vt 0.884320 0.531497
vt 0.891164 0.469831
vt 0.921627 0.560606
vt 0.847418 0.530854
vt 0.842182 0.465206
vt 0.813761 0.531773
vt 0.794214 0.471606
vt 0.763584 0.482476
vt 0.781877 0.544924
vt 0.761649 0.559370
vt 0.738210 0.497682
vt 0.741880 0.578125
vt 0.720436 0.516575
vt 0.305817 0.871371
vt 0.298177 0.970446
vt 0.257876 0.943673
vt 0.270284 0.885784
vt 0.382393 0.726217
vt 0.381956 0.707328
vt 0.377846 0.692154
vt 0.360043 0.667661
vt 0.317443 0.638595
vt 0.263327 0.627274
vt 0.202402 0.628119
vt 0.115797 0.632527
vt 0.013985 0.648567
vt 0.977331 0.414654
vt 0.904437 0.398540
vt 0.830083 0.388098
vt 0.777567 0.389607
vt 0.735894 0.400974
vt 0.713049 0.417151
vt 0.692388 0.439142
vt 0.563781 0.216824
vt 0.585025 0.296532
vt 0.532804 0.244969
vt 0.608965 0.274295
vt 0.383869 0.857191
vt 0.387385 0.991135
vt 0.433510 0.690046
vt 0.429929 0.667926
vt 0.421485 0.645837
vt 0.399086 0.616789
vt 0.353552 0.590032
vt 0.290169 0.572575
vt 0.216783 0.565780
vt 0.120734 0.568942
vt 0.004427 0.576322
vt 0.988065 0.344696
vt 0.906799 0.332442
vt 0.814628 0.326666
vt 0.763474 0.329665
vt 0.713481 0.342062
vt 0.692977 0.353188
vt 0.665837 0.375357
vt 0.443735 0.841595
vt 0.458277 0.994995
vt 0.482770 0.659305
vt 0.475314 0.632977
vt 0.463730 0.609535
vt 0.434079 0.575244
vt 0.385013 0.544438
vt 0.314629 0.521301
vt 0.233270 0.509715
vt 0.128813 0.507581
vt 0.004643 0.507111
vt 0.990709 0.276228
vt 0.895494 0.271059
vt 0.804938 0.269186
vt 0.744297 0.275283
vt 0.690100 0.290312
vt 0.668102 0.301430
vt 0.639339 0.322102
vt 0.524619 0.985290
vt 0.502244 0.822207
vt 0.532818 0.633270
vt 0.519752 0.598971
vt 0.505267 0.574608
vt 0.467633 0.535296
vt 0.412400 0.498600
vt 0.331784 0.468957
vt 0.247574 0.454394
vt 0.138034 0.448359
vt 0.010971 0.443141
vt 0.988167 0.212007
vt 0.890442 0.212020
vt 0.796302 0.213210
vt 0.728551 0.221698
vt 0.669652 0.238586
vt 0.640335 0.252677
vt 0.586001 0.969715
vt 0.560059 0.802499
vt 0.603628 0.617717
vt 0.587314 0.571754
vt 0.563394 0.531729
vt 0.515130 0.481609
vt 0.444940 0.435052
vt 0.354882 0.400295
vt 0.258540 0.382046
vt 0.144688 0.374292
vt 0.018377 0.367645
vt 0.886857 0.137855
vt 0.984353 0.136094
vt 0.786657 0.140543
vt 0.714545 0.150262
vt 0.647435 0.169555
vt 0.602233 0.190735
vt 0.633812 0.791146
vt 0.659772 0.955387
vt 0.726133 0.595426
vt 0.713047 0.533098
vt 0.621595 0.341336
vt 0.654821 0.390871
vt 0.685168 0.450383
vt 0.251122 0.878046
vt 0.226521 0.946114
vt 0.103006 0.853669
vt 0.158323 0.811814
vt 0.183854 0.833606
vt 0.125373 0.890871
vt 0.157676 0.916576
vt 0.208486 0.851500
vt 0.191382 0.935896
vt 0.229714 0.867217
vt 0.687146 0.623753
vt 0.719179 0.656157
vt 0.619089 0.565855
vt 0.567329 0.516294
vt 0.518330 0.468430
vt 0.472816 0.422461
vt 0.419108 0.368804
vt 0.749736 0.647694
vt 0.880249 0.595181
vt 0.846076 0.611190
vt 0.814595 0.628647
vt 0.781813 0.639065
vn 0.0000 -0.0000 1.0000
vn 0.2899 -0.6073 -0.7397
vn 0.1587 -0.9408 -0.2997
vn 0.1365 -0.8595 -0.4925
vn 0.4088 -0.6903 -0.5969
vn 0.3684 -0.3284 -0.8697
vn 0.5627 -0.3937 -0.7269
vn 0.4092 -0.1139 -0.9053
vn 0.6413 -0.0667 -0.7644
vn 0.5823 0.2690 -0.7672
vn 0.3934 0.1443 -0.9080
vn 0.4325 0.5329 -0.7273
vn 0.3073 0.3801 -0.8724
vn 0.2670 0.7104 -0.6512
vn 0.2242 0.5450 -0.8079
vn 0.0962 0.7762 -0.6232
vn 0.0911 0.5867 -0.8047
vn -0.0803 0.5942 -0.8003
vn -0.1135 0.7818 -0.6131
vn -0.2334 0.5689 -0.7886
vn -0.3123 0.7149 -0.6256
vn -0.3356 0.3830 -0.8606
vn -0.4756 0.5618 -0.6769
vn -0.4226 0.1371 -0.8959
vn -0.6125 0.2589 -0.7469
vn -0.6459 -0.1317 -0.7520
vn -0.4237 -0.2058 -0.8821
vn -0.3794 -0.4097 -0.8296
vn -0.5773 -0.4266 -0.6962
vn -0.3082 -0.5543 -0.7731
vn -0.4888 -0.5840 -0.6481
vn 0.0349 -0.9784 -0.2037
vn -0.0332 -0.9789 -0.2016
vn -0.0329 -0.8692 -0.4934
vn 0.0438 -0.8713 -0.4888
vn 0.1747 -0.9640 -0.2006
vn 0.4756 -0.7772 -0.4120
vn 0.7090 -0.4439 -0.5480
vn 0.7981 -0.0345 -0.6015
vn 0.7217 0.4088 -0.5586
vn 0.5176 0.6942 -0.5002
vn 0.3178 0.8309 -0.4568
vn 0.1098 0.9030 -0.4153
vn -0.1260 0.9035 -0.4096
vn -0.3449 0.8254 -0.4470
vn -0.5581 0.6668 -0.4939
vn -0.7419 0.3871 -0.5475
vn -0.8114 -0.0217 -0.5841
vn -0.7303 -0.3726 -0.5726
vn -0.5887 -0.6324 -0.5035
vn -0.6187 -0.7855 0.0151
vn -0.1618 -0.9868 -0.0087
vn -0.1482 -0.9888 -0.0153
vn -0.6494 -0.7602 -0.0166
vn 0.0043 -0.9997 -0.0255
vn -0.0058 -0.9996 -0.0292
vn 0.1266 -0.9881 -0.0867
vn 0.4843 -0.8407 -0.2423
vn 0.7993 -0.4786 -0.3634
vn 0.9148 -0.0017 -0.4038
vn 0.8044 0.4703 -0.3630
vn 0.5834 0.7533 -0.3037
vn 0.3456 0.8959 -0.2792
vn 0.1036 0.9647 -0.2423
vn -0.1158 0.9668 -0.2280
vn -0.3507 0.8954 -0.2744
vn -0.6208 0.7161 -0.3189
vn -0.8159 0.4610 -0.3489
vn -0.9207 0.0693 -0.3840
vn -0.8682 -0.3045 -0.3918
vn -0.6421 -0.6984 -0.3161
vn -0.0017 -0.9999 -0.0157
vn -0.0018 -1.0000 -0.0075
vn 0.0988 -0.9945 -0.0336
vn 0.4770 -0.8711 -0.1166
vn 0.8485 -0.5019 -0.1677
vn 0.9848 0.0065 -0.1733
vn 0.8510 0.5000 -0.1605
vn 0.6143 0.7789 -0.1262
vn 0.3610 0.9287 -0.0845
vn 0.1002 0.9926 -0.0682
vn -0.1072 0.9912 -0.0779
vn -0.3741 0.9210 -0.1086
vn -0.6553 0.7438 -0.1318
vn -0.8645 0.4792 -0.1519
vn -0.9792 0.0979 -0.1775
vn -0.9400 -0.2882 -0.1826
vn -0.6618 -0.7385 -0.1289
vn -0.0024 -1.0000 0.0050
vn -0.0063 -1.0000 -0.0015
vn 0.0944 -0.9955 -0.0085
vn 0.5121 -0.8589 -0.0018
vn 0.8761 -0.4816 0.0231
vn 0.9991 0.0023 0.0426
vn 0.8703 0.4914 0.0321
vn 0.6027 0.7975 0.0284
vn 0.3493 0.9357 0.0497
vn 0.1051 0.9926 0.0602
vn -0.1005 0.9938 0.0464
vn -0.3693 0.9286 0.0365
vn -0.6590 0.7515 0.0316
vn -0.8697 0.4934 0.0133
vn -0.9937 0.1114 -0.0068
vn -0.9547 -0.2972 -0.0180
vn -0.0035 -0.9999 -0.0116
vn -0.0072 -0.9999 -0.0114
vn 0.0787 -0.9969 -0.0081
vn 0.4597 -0.8865 0.0531
vn 0.8687 -0.4806 0.1198
vn 0.9903 -0.0134 0.1386
vn 0.8677 0.4828 0.1179
vn 0.5978 0.7965 0.0907
vn 0.3374 0.9384 0.0753
vn 0.1039 0.9920 0.0714
vn -0.0952 0.9922 0.0806
vn -0.3658 0.9264 0.0896
vn -0.6558 0.7500 0.0861
vn -0.8568 0.5107 0.0707
vn -0.9885 0.1345 0.0685
vn -0.9483 -0.3125 0.0546
vn -0.0065 -0.9997 -0.0254
vn -0.0040 -0.9997 -0.0260
vn -0.1420 -0.8455 -0.5147
vn -0.2237 -0.8877 -0.4024
vn -0.1849 -0.9823 -0.0308
vn -0.2482 -0.9590 -0.1366
vn -0.2930 -0.9093 -0.2955
vn 0.0959 -0.5874 -0.8036
vn -0.1068 -0.5848 -0.8041
vn -0.1038 0.3002 -0.9482
vn 0.1249 0.3307 -0.9354
vn 0.1457 0.0879 -0.9854
vn -0.1504 0.0480 -0.9875
vn -0.1372 -0.2048 -0.9691
vn 0.1491 -0.1715 -0.9738
vn -0.1352 -0.3577 -0.9240
vn 0.1222 -0.3321 -0.9353
usemtl Material_#18
s off
f 103/1/1 123/2/1 102/3/1
f 105/4/1 124/5/1 104/6/1
f 95/7/1 99/8/1 100/9/1
f 97/10/1 95/7/1 96/11/1
f 98/12/1 95/7/1 97/10/1
f 99/8/1 95/7/1 98/12/1
f 100/9/1 123/2/1 95/7/1
f 123/2/1 100/9/1 101/13/1
f 102/3/1 123/2/1 101/13/1
f 104/6/1 124/5/1 103/1/1
f 110/14/1 105/4/1 106/15/1
f 110/14/1 106/15/1 107/16/1
f 110/14/1 107/16/1 108/17/1
f 110/14/1 108/17/1 109/18/1
f 124/5/1 105/4/1 110/14/1
f 123/2/1 103/1/1 124/5/1
s 1
f 2/19/2 15/20/3 1/21/4
f 15/20/3 2/19/2 16/22/5
f 3/23/6 16/22/5 2/19/2
f 16/22/5 3/23/6 17/24/7
f 4/25/8 17/24/7 3/23/6
f 17/24/7 4/25/8 18/26/9
f 18/26/9 4/25/8 19/27/10
f 4/25/8 5/28/11 19/27/10
f 19/27/10 5/28/11 20/29/12
f 20/29/12 5/28/11 6/30/13
f 21/31/14 20/29/12 6/30/13
f 21/31/14 6/30/13 7/32/15
f 22/33/16 7/32/15 126/34/17
f 7/32/15 22/33/16 21/31/14
f 22/33/16 125/35/18 23/36/19
f 125/35/18 22/33/16 126/34/17
f 23/37/19 8/38/20 24/39/21
f 8/38/20 23/37/19 125/40/18
f 24/39/21 9/41/22 25/42/23
f 9/41/22 24/39/21 8/38/20
f 25/42/23 10/43/24 26/44/25
f 10/43/24 25/42/23 9/41/22
f 27/45/26 10/43/24 11/46/27
f 10/43/24 27/45/26 26/44/25
f 12/47/28 28/48/29 11/46/27
f 11/46/27 28/48/29 27/45/26
f 13/49/30 29/50/31 12/47/28
f 12/47/28 29/50/31 28/48/29
f 113/51/32 114/52/33 111/53/34
f 113/51/32 111/53/34 112/54/35
f 31/55/36 16/22/5 32/56/37
f 16/22/5 31/55/36 15/20/3
f 17/24/7 32/56/37 16/22/5
f 32/56/37 17/24/7 33/57/38
f 33/57/38 18/26/9 34/58/39
f 18/26/9 33/57/38 17/24/7
f 34/58/39 19/27/10 35/59/40
f 19/27/10 34/58/39 18/26/9
f 36/60/41 35/59/40 19/27/10
f 36/60/41 19/27/10 20/29/12
f 36/60/41 20/29/12 37/61/42
f 20/29/12 21/31/14 37/61/42
f 38/62/43 37/61/42 21/31/14
f 21/31/14 22/33/16 38/62/43
f 39/63/44 38/62/43 22/33/16
f 39/63/44 22/33/16 23/36/19
f 39/64/44 24/39/21 40/65/45
f 24/39/21 39/64/44 23/37/19
f 40/65/45 25/42/23 41/66/46
f 25/42/23 40/65/45 24/39/21
f 41/66/46 26/44/25 42/67/47
f 26/44/25 41/66/46 25/42/23
f 42/67/47 26/44/25 43/68/48
f 43/68/48 26/44/25 27/45/26
f 43/68/48 28/48/29 44/69/49
f 28/48/29 43/68/48 27/45/26
f 29/50/31 45/70/50 28/48/29
f 28/48/29 45/70/50 44/69/49
f 109/71/51 94/72/52 110/73/53
f 94/72/52 109/71/51 93/74/54
f 115/75/55 116/76/56 114/52/33
f 115/75/55 114/52/33 113/51/32
f 47/77/57 32/56/37 48/78/58
f 32/56/37 47/77/57 31/55/36
f 48/78/58 32/56/37 49/79/59
f 49/79/59 32/56/37 33/57/38
f 49/79/59 34/58/39 50/80/60
f 34/58/39 49/79/59 33/57/38
f 50/80/60 35/59/40 51/81/61
f 35/59/40 50/80/60 34/58/39
f 51/81/61 36/60/41 52/82/62
f 36/60/41 51/81/61 35/59/40
f 53/83/63 52/82/62 36/60/41
f 36/60/41 37/61/42 53/83/63
f 54/84/64 53/83/63 37/61/42
f 54/84/64 37/61/42 38/62/43
f 55/85/65 54/84/64 38/62/43
f 55/85/65 38/62/43 39/63/44
f 55/86/65 40/65/45 56/87/66
f 40/65/45 55/86/65 39/64/44
f 56/87/66 41/66/46 57/88/67
f 41/66/46 56/87/66 40/65/45
f 58/89/68 57/88/67 41/66/46
f 41/66/46 42/67/47 58/89/68
f 59/90/69 58/89/68 42/67/47
f 59/90/69 42/67/47 43/68/48
f 59/90/69 43/68/48 60/91/70
f 60/91/70 43/68/48 44/69/49
f 60/91/70 44/69/49 61/92/71
f 61/92/71 44/69/49 45/70/50
f 117/93/72 118/94/73 116/76/56
f 117/93/72 116/76/56 115/75/55
f 63/95/74 48/78/58 64/96/75
f 48/78/58 63/95/74 47/77/57
f 64/96/75 49/79/59 65/97/76
f 49/79/59 64/96/75 48/78/58
f 66/98/77 65/97/76 49/79/59
f 66/98/77 49/79/59 50/80/60
f 66/98/77 51/81/61 67/99/78
f 51/81/61 66/98/77 50/80/60
f 67/99/78 52/82/62 68/100/79
f 52/82/62 67/99/78 51/81/61
f 69/101/80 68/100/79 52/82/62
f 52/82/62 53/83/63 69/101/80
f 70/102/81 69/101/80 53/83/63
f 70/102/81 53/83/63 54/84/64
f 71/103/82 70/102/81 54/84/64
f 71/103/82 54/84/64 55/85/65
f 71/104/82 56/87/66 72/105/83
f 56/87/66 71/104/82 55/86/65
f 72/105/83 57/88/67 73/106/84
f 57/88/67 72/105/83 56/87/66
f 74/107/85 73/106/84 57/88/67
f 74/107/85 57/88/67 58/89/68
f 74/107/85 59/90/69 75/108/86
f 59/90/69 74/107/85 58/89/68
f 75/108/86 60/91/70 76/109/87
f 60/91/70 75/108/86 59/90/69
f 76/109/87 61/92/71 77/110/88
f 61/92/71 76/109/87 60/91/70
f 120/111/89 117/93/72 119/112/90
f 117/93/72 120/111/89 118/94/73
f 79/113/91 64/96/75 80/114/92
f 64/96/75 79/113/91 63/95/74
f 80/114/92 64/96/75 81/115/93
f 81/115/93 64/96/75 65/97/76
f 82/116/94 81/115/93 65/97/76
f 82/116/94 65/97/76 66/98/77
f 83/117/95 82/116/94 66/98/77
f 83/117/95 66/98/77 67/99/78
f 83/117/95 68/100/79 84/118/96
f 68/100/79 83/117/95 67/99/78
f 85/119/97 84/118/96 68/100/79
f 85/119/97 68/100/79 69/101/80
f 86/120/98 85/119/97 69/101/80
f 86/120/98 69/101/80 70/102/81
f 87/121/99 86/120/98 70/102/81
f 87/121/99 70/102/81 71/103/82
f 87/122/99 72/105/83 88/123/100
f 72/105/83 87/122/99 71/104/82
f 88/123/100 73/106/84 89/124/101
f 73/106/84 88/123/100 72/105/83
f 89/124/101 74/107/85 90/125/102
f 74/107/85 89/124/101 73/106/84
f 90/125/102 75/108/86 91/126/103
f 75/108/86 90/125/102 74/107/85
f 91/126/103 76/109/87 92/127/104
f 76/109/87 91/126/103 75/108/86
f 92/127/104 77/110/88 93/74/54
f 77/110/88 92/127/104 76/109/87
f 122/128/105 119/112/90 121/129/106
f 119/112/90 122/128/105 120/111/89
f 95/130/107 79/113/91 96/131/108
f 79/113/91 80/114/92 96/131/108
f 96/131/108 80/114/92 97/132/109
f 97/132/109 80/114/92 81/115/93
f 98/133/110 97/132/109 81/115/93
f 98/133/110 81/115/93 82/116/94
f 99/134/111 98/133/110 82/116/94
f 99/134/111 82/116/94 83/117/95
f 100/135/112 99/134/111 83/117/95
f 100/135/112 83/117/95 84/118/96
f 100/135/112 85/119/97 101/136/113
f 85/119/97 100/135/112 84/118/96
f 101/136/113 86/120/98 102/137/114
f 86/120/98 101/136/113 85/119/97
f 102/137/114 87/121/99 103/138/115
f 87/121/99 102/137/114 86/120/98
f 104/139/116 103/140/115 87/122/99
f 104/139/116 87/122/99 88/123/100
f 105/141/117 104/139/116 88/123/100
f 105/141/117 88/123/100 89/124/101
f 105/141/117 90/125/102 106/142/118
f 90/125/102 105/141/117 89/124/101
f 107/143/119 106/142/118 90/125/102
f 107/143/119 90/125/102 91/126/103
f 107/143/119 92/127/104 108/144/120
f 92/127/104 107/143/119 91/126/103
f 108/144/120 93/74/54 109/71/51
f 93/74/54 108/144/120 92/127/104
f 123/145/121 124/146/122 122/128/105
f 123/145/121 122/128/105 121/129/106
f 14/147/123 30/148/124 13/49/30
f 29/50/31 13/49/30 30/148/124
f 94/72/52 77/110/88 78/149/125
f 77/110/88 94/72/52 93/74/54
f 61/92/71 78/149/125 77/110/88
f 78/149/125 61/92/71 62/150/126
f 45/70/50 62/150/126 61/92/71
f 62/150/126 45/70/50 46/151/127
f 29/50/31 46/151/127 45/70/50
f 46/151/127 29/50/31 30/148/124
f 111/53/34 136/152/128 112/54/35
f 136/152/128 111/53/34 135/153/129
f 127/154/130 126/34/17 128/155/131
f 126/34/17 127/154/130 125/35/18
f 130/156/132 129/157/133 127/154/130
f 130/156/132 127/154/130 128/155/131
f 131/158/134 130/156/132 132/159/135
f 130/156/132 131/158/134 129/157/133
f 133/160/136 132/159/135 134/161/137
f 132/159/135 133/160/136 131/158/134
f 135/153/129 134/161/137 136/152/128
f 134/161/137 135/153/129 133/160/136
f 15/20/3 113/51/32 1/21/4
f 112/54/35 1/21/4 113/51/32
f 114/162/33 30/148/124 14/147/123
f 114/162/33 14/147/123 111/163/34
f 115/75/55 15/20/3 31/55/36
f 15/20/3 115/75/55 113/51/32
f 46/151/127 30/148/124 116/164/56
f 116/164/56 30/148/124 114/162/33
f 117/93/72 31/55/36 47/77/57
f 31/55/36 117/93/72 115/75/55
f 118/165/73 62/150/126 46/151/127
f 118/165/73 46/151/127 116/164/56
f 119/112/90 47/77/57 63/95/74
f 47/77/57 119/112/90 117/93/72
f 120/166/89 78/149/125 62/150/126
f 120/166/89 62/150/126 118/165/73
f 121/129/106 63/95/74 79/113/91
f 63/95/74 121/129/106 119/112/90
f 122/167/105 94/72/52 78/149/125
f 122/167/105 78/149/125 120/166/89
f 95/130/107 123/145/121 121/129/106
f 95/130/107 121/129/106 79/113/91
f 110/73/53 122/167/105 124/168/122
f 122/167/105 110/73/53 94/72/52
f 135/169/129 14/147/123 13/49/30
f 14/147/123 135/169/129 111/163/34
f 1/21/4 112/54/35 136/152/128
f 136/152/128 2/19/2 1/21/4
f 128/155/131 7/32/15 6/30/13
f 7/32/15 128/155/131 126/34/17
f 8/38/20 127/170/130 9/41/22
f 127/170/130 8/38/20 125/40/18
f 130/156/132 6/30/13 5/28/11
f 6/30/13 130/156/132 128/155/131
f 9/41/22 129/171/133 10/43/24
f 129/171/133 9/41/22 127/170/130
f 132/159/135 5/28/11 4/25/8
f 5/28/11 132/159/135 130/156/132
f 11/46/27 129/171/133 131/172/134
f 129/171/133 11/46/27 10/43/24
f 3/23/6 134/161/137 132/159/135
f 132/159/135 4/25/8 3/23/6
f 12/47/28 131/172/134 133/173/136
f 131/172/134 12/47/28 11/46/27
f 2/19/2 136/152/128 134/161/137
f 134/161/137 3/23/6 2/19/2
f 13/49/30 133/173/136 135/169/129
f 133/173/136 13/49/30 12/47/28
