# Blender v2.80 (sub 75) OBJ File: ''
# www.blender.org
mtllib queso.mtl
o Cylinder001_Mesh.003
v 0.048069 0.000000 -0.096972
v -0.024512 -0.000000 -0.109770
v -0.107048 0.000000 -0.040514
v -0.107048 0.000000 0.033187
v -0.088339 0.000000 0.065592
v 0.118596 0.005578 -0.009476
v 0.111094 0.005578 -0.046210
v 0.089492 0.005578 -0.083626
v 0.056397 0.005578 -0.111396
v 0.015799 0.005578 -0.126172
v -0.027404 0.005578 -0.126172
v -0.068002 0.005578 -0.111396
v -0.101097 0.005578 -0.083626
v -0.122699 0.005578 -0.046210
v -0.130201 0.005578 -0.003664
v -0.122699 0.005578 0.038883
v -0.101098 0.005578 0.076298
v 0.124197 0.020352 -0.009476
v 0.116357 0.020352 -0.048126
v 0.093783 0.020352 -0.087226
v 0.059197 0.020352 -0.116247
v 0.016772 0.020352 -0.131689
v -0.028377 0.020352 -0.131689
v -0.070803 0.020352 -0.116247
v -0.105388 0.020352 -0.087226
v -0.127963 0.020352 -0.048126
v -0.135803 0.020352 -0.003664
v -0.127963 0.020352 0.040799
v -0.105388 0.020352 0.079899
v 0.124197 0.069391 -0.009476
v 0.116357 0.069391 -0.048126
v 0.093783 0.069391 -0.087226
v 0.059197 0.069391 -0.116247
v 0.016772 0.069391 -0.131689
v -0.028377 0.069391 -0.131689
v -0.070803 0.069391 -0.116247
v -0.105388 0.069391 -0.087226
v -0.127963 0.069391 -0.048126
v -0.135803 0.069391 -0.003664
v -0.127963 0.069391 0.040799
v -0.105388 0.069391 0.079899
v 0.118596 0.083848 -0.009476
v 0.111094 0.083848 -0.046210
v 0.089492 0.083848 -0.083626
v 0.056397 0.083848 -0.111396
v 0.015799 0.083848 -0.126172
v -0.027404 0.083848 -0.126172
v -0.068002 0.083848 -0.111396
v -0.101097 0.083848 -0.083626
v -0.122699 0.083848 -0.046210
v -0.130201 0.083848 -0.003664
v -0.122699 0.083848 0.038883
v -0.101098 0.083848 0.076298
v 0.099813 0.090000 -0.009251
v 0.095443 0.090000 -0.040514
v 0.076734 0.090000 -0.072920
v 0.048069 0.090000 -0.096972
v 0.012907 0.090000 -0.109770
v -0.024512 0.090000 -0.109770
v -0.059674 0.090000 -0.096972
v -0.088339 0.090000 -0.072920
v -0.107048 0.090000 -0.040514
v -0.113546 0.090000 -0.003664
v -0.107048 0.090000 0.033187
v -0.088339 0.090000 0.065592
v -0.007775 0.090000 -0.009381
v -0.007791 -0.000000 -0.009390
v 0.101941 -0.000000 -0.009476
v -0.113546 -0.000000 -0.003664
v -0.088339 -0.000000 -0.072920
v -0.059674 -0.000000 -0.096972
v 0.012907 -0.000000 -0.109770
v 0.076734 -0.000000 -0.072920
v 0.095443 -0.000000 -0.040514
vt 0.955830 0.068606
vt 0.957802 0.212979
vt 0.941882 0.255746
vt 0.886316 0.275292
vt 0.569343 0.279201
vt 0.565092 0.013809
vt 0.889448 0.009496
vt 0.938736 0.025314
vt 0.245020 0.275518
vt 0.196165 0.256859
vt 0.180143 0.214073
vt 0.181758 0.069555
vt 0.198742 0.026194
vt 0.247982 0.010286
vt 0.020315 0.741719
vt 0.101886 0.749588
vt 0.098794 0.785845
vt 0.008903 0.778600
vt 0.188671 0.749126
vt 0.188165 0.785275
vt 0.277364 0.748404
vt 0.277351 0.784694
vt 0.366456 0.748073
vt 0.366473 0.784423
vt 0.455570 0.748041
vt 0.455564 0.784399
vt 0.544663 0.748055
vt 0.544642 0.784414
vt 0.633756 0.748200
vt 0.633722 0.784555
vt 0.722810 0.748482
vt 0.722834 0.784775
vt 0.811504 0.749128
vt 0.812017 0.785266
vt 0.898301 0.749604
vt 0.901389 0.785863
vt 0.979873 0.741744
vt 0.991281 0.778625
vt 0.096099 0.817879
vt 0.002528 0.814989
vt 0.187343 0.817607
vt 0.277156 0.817402
vt 0.366441 0.817302
vt 0.455557 0.817296
vt 0.544640 0.817314
vt 0.633768 0.817392
vt 0.723067 0.817473
vt 0.812864 0.817629
vt 0.904083 0.817909
vt 0.997647 0.815011
vt 0.096086 0.919561
vt 0.002514 0.922606
vt 0.187339 0.919800
vt 0.277150 0.920018
vt 0.366431 0.920144
vt 0.455546 0.920170
vt 0.544629 0.920188
vt 0.633761 0.920143
vt 0.723064 0.920067
vt 0.812864 0.919917
vt 0.904081 0.919643
vt 0.997641 0.922546
vt 0.098775 0.950904
vt 0.008899 0.958551
vt 0.188167 0.951488
vt 0.277344 0.952100
vt 0.366458 0.952405
vt 0.455545 0.952440
vt 0.544625 0.952465
vt 0.633709 0.952356
vt 0.722826 0.952140
vt 0.812016 0.951653
vt 0.901403 0.951068
vt 0.991306 0.958324
vt 0.101998 0.987533
vt 0.033100 0.996714
vt 0.188679 0.988032
vt 0.277346 0.988796
vt 0.366433 0.989163
vt 0.455544 0.989204
vt 0.544634 0.989229
vt 0.633735 0.989116
vt 0.722798 0.988840
vt 0.811495 0.988195
vt 0.898280 0.987733
vt 0.979839 0.995617
vt 0.664171 0.406082
vt 0.641465 0.518150
vt 0.591850 0.601137
vt 0.504090 0.674776
vt 0.396438 0.713958
vt 0.281877 0.713958
vt 0.174225 0.674776
vt 0.086466 0.601137
vt 0.029185 0.501924
vt 0.009291 0.389103
vt 0.029185 0.276282
vt 0.086466 0.177070
vt 0.334861 0.407838
vt 0.663978 0.406362
vt 0.641131 0.518528
vt 0.591766 0.601179
vt 0.503928 0.674886
vt 0.396372 0.713995
vt 0.281927 0.714056
vt 0.174347 0.674915
vt 0.086557 0.601120
vt 0.029471 0.502065
vt 0.009321 0.389628
vt 0.029202 0.277057
vt 0.086742 0.177717
vt 0.334855 0.407786
vn 0.0000 0.0000 1.0000
vn -0.0012 -0.0403 0.9992
vn 0.0008 -0.0001 1.0000
vn 0.0007 -0.0001 1.0000
vn 0.6428 0.0000 0.7660
vn 0.6735 0.1519 0.7234
vn 0.6761 -0.0087 0.7368
vn 0.6813 -0.0002 0.7320
vn 0.1806 -0.9828 -0.0371
vn 0.1649 -0.9843 -0.0633
vn 0.6682 -0.6994 -0.2538
vn 0.7117 -0.6874 -0.1448
vn 0.1365 -0.9840 -0.1145
vn 0.5487 -0.6979 -0.4604
vn 0.0891 -0.9840 -0.1543
vn 0.3581 -0.6979 -0.6203
vn 0.0309 -0.9840 -0.1755
vn 0.1244 -0.6979 -0.7054
vn -0.0309 -0.9840 -0.1755
vn -0.1244 -0.6979 -0.7054
vn -0.0891 -0.9840 -0.1543
vn -0.3581 -0.6979 -0.6203
vn -0.1365 -0.9840 -0.1145
vn -0.5487 -0.6979 -0.4604
vn -0.1674 -0.9840 -0.0609
vn -0.6730 -0.6979 -0.2450
vn -0.1782 -0.9840 -0.0000
vn -0.7162 -0.6979 -0.0000
vn -0.1674 -0.9840 0.0609
vn -0.6730 -0.6979 0.2450
vn -0.1592 -0.9830 0.0919
vn -0.6249 -0.6924 0.3608
vn 0.9205 -0.1768 -0.3485
vn 0.9653 -0.1729 -0.1958
vn 0.7540 -0.1768 -0.6327
vn 0.4921 -0.1768 -0.8524
vn 0.1709 -0.1768 -0.9693
vn -0.1709 -0.1768 -0.9693
vn -0.4921 -0.1768 -0.8524
vn -0.7540 -0.1768 -0.6327
vn -0.9249 -0.1768 -0.3366
vn -0.9843 -0.1768 -0.0000
vn -0.9249 -0.1768 0.3366
vn -0.8528 -0.1742 0.4924
vn 0.9200 0.1804 -0.3480
vn 0.9646 0.1766 -0.1961
vn 0.7535 0.1802 -0.6323
vn 0.4918 0.1802 -0.8518
vn 0.1708 0.1802 -0.9687
vn -0.1708 0.1802 -0.9687
vn -0.4918 0.1802 -0.8518
vn -0.7535 0.1802 -0.6323
vn -0.9243 0.1802 -0.3364
vn -0.9836 0.1802 0.0000
vn -0.9243 0.1802 0.3364
vn -0.8523 0.1775 0.4921
vn 0.6750 0.6921 -0.2558
vn 0.7100 0.6905 -0.1383
vn 0.5540 0.6906 -0.4649
vn 0.3616 0.6906 -0.6263
vn 0.1256 0.6906 -0.7123
vn -0.1256 0.6906 -0.7123
vn -0.3616 0.6906 -0.6263
vn -0.5540 0.6906 -0.4649
vn -0.6796 0.6906 -0.2474
vn -0.7232 0.6906 0.0000
vn -0.6796 0.6906 0.2474
vn -0.6309 0.6850 0.3643
vn 0.1813 0.9811 -0.0673
vn 0.1703 0.9851 -0.0238
vn 0.1492 0.9808 -0.1252
vn 0.0974 0.9808 -0.1687
vn 0.0338 0.9808 -0.1918
vn -0.0338 0.9808 -0.1918
vn -0.0974 0.9808 -0.1687
vn -0.1492 0.9808 -0.1252
vn -0.1830 0.9808 -0.0666
vn -0.1948 0.9808 -0.0000
vn -0.1830 0.9808 0.0666
vn -0.1740 0.9796 0.1005
vn -0.0000 1.0000 -0.0000
vn 0.0000 -1.0000 -0.0000
usemtl 08_-_Default
s off
f 18/1/1 30/2/1 42/3/1
f 42/3/2 54/4/2 66/5/2
f 66/5/3 67/6/3 68/7/3
f 42/3/4 66/5/4 68/7/4
f 18/1/1 42/3/1 68/7/1
f 6/8/1 18/1/1 68/7/1
f 65/9/5 53/10/5 41/11/5
f 41/11/5 29/12/5 17/13/5
f 65/9/5 41/11/5 17/13/5
f 17/13/6 5/14/6 67/6/6
f 65/9/7 17/13/7 67/6/7
f 66/5/8 65/9/8 67/6/8
s 1
f 68/15/9 74/16/10 7/17/11
f 7/17/11 6/18/12 68/15/9
f 74/16/10 73/19/13 8/20/14
f 8/20/14 7/17/11 74/16/10
f 73/19/13 1/21/15 9/22/16
f 9/22/16 8/20/14 73/19/13
f 1/21/15 72/23/17 10/24/18
f 10/24/18 9/22/16 1/21/15
f 72/23/17 2/25/19 11/26/20
f 11/26/20 10/24/18 72/23/17
f 2/25/19 71/27/21 12/28/22
f 12/28/22 11/26/20 2/25/19
f 71/27/21 70/29/23 13/30/24
f 13/30/24 12/28/22 71/27/21
f 70/29/23 3/31/25 14/32/26
f 14/32/26 13/30/24 70/29/23
f 3/31/25 69/33/27 15/34/28
f 15/34/28 14/32/26 3/31/25
f 69/33/27 4/35/29 16/36/30
f 16/36/30 15/34/28 69/33/27
f 4/35/29 5/37/31 17/38/32
f 17/38/32 16/36/30 4/35/29
f 6/18/12 7/17/11 19/39/33
f 19/39/33 18/40/34 6/18/12
f 7/17/11 8/20/14 20/41/35
f 20/41/35 19/39/33 7/17/11
f 8/20/14 9/22/16 21/42/36
f 21/42/36 20/41/35 8/20/14
f 9/22/16 10/24/18 22/43/37
f 22/43/37 21/42/36 9/22/16
f 10/24/18 11/26/20 23/44/38
f 23/44/38 22/43/37 10/24/18
f 11/26/20 12/28/22 24/45/39
f 24/45/39 23/44/38 11/26/20
f 12/28/22 13/30/24 25/46/40
f 25/46/40 24/45/39 12/28/22
f 13/30/24 14/32/26 26/47/41
f 26/47/41 25/46/40 13/30/24
f 14/32/26 15/34/28 27/48/42
f 27/48/42 26/47/41 14/32/26
f 15/34/28 16/36/30 28/49/43
f 28/49/43 27/48/42 15/34/28
f 16/36/30 17/38/32 29/50/44
f 29/50/44 28/49/43 16/36/30
f 18/40/34 19/39/33 31/51/45
f 31/51/45 30/52/46 18/40/34
f 19/39/33 20/41/35 32/53/47
f 32/53/47 31/51/45 19/39/33
f 20/41/35 21/42/36 33/54/48
f 33/54/48 32/53/47 20/41/35
f 21/42/36 22/43/37 34/55/49
f 34/55/49 33/54/48 21/42/36
f 22/43/37 23/44/38 35/56/50
f 35/56/50 34/55/49 22/43/37
f 23/44/38 24/45/39 36/57/51
f 36/57/51 35/56/50 23/44/38
f 24/45/39 25/46/40 37/58/52
f 37/58/52 36/57/51 24/45/39
f 25/46/40 26/47/41 38/59/53
f 38/59/53 37/58/52 25/46/40
f 26/47/41 27/48/42 39/60/54
f 39/60/54 38/59/53 26/47/41
f 27/48/42 28/49/43 40/61/55
f 40/61/55 39/60/54 27/48/42
f 28/49/43 29/50/44 41/62/56
f 41/62/56 40/61/55 28/49/43
f 30/52/46 31/51/45 43/63/57
f 43/63/57 42/64/58 30/52/46
f 31/51/45 32/53/47 44/65/59
f 44/65/59 43/63/57 31/51/45
f 32/53/47 33/54/48 45/66/60
f 45/66/60 44/65/59 32/53/47
f 33/54/48 34/55/49 46/67/61
f 46/67/61 45/66/60 33/54/48
f 34/55/49 35/56/50 47/68/62
f 47/68/62 46/67/61 34/55/49
f 35/56/50 36/57/51 48/69/63
f 48/69/63 47/68/62 35/56/50
f 36/57/51 37/58/52 49/70/64
f 49/70/64 48/69/63 36/57/51
f 37/58/52 38/59/53 50/71/65
f 50/71/65 49/70/64 37/58/52
f 38/59/53 39/60/54 51/72/66
f 51/72/66 50/71/65 38/59/53
f 39/60/54 40/61/55 52/73/67
f 52/73/67 51/72/66 39/60/54
f 40/61/55 41/62/56 53/74/68
f 53/74/68 52/73/67 40/61/55
f 42/64/58 43/63/57 55/75/69
f 55/75/69 54/76/70 42/64/58
f 43/63/57 44/65/59 56/77/71
f 56/77/71 55/75/69 43/63/57
f 44/65/59 45/66/60 57/78/72
f 57/78/72 56/77/71 44/65/59
f 45/66/60 46/67/61 58/79/73
f 58/79/73 57/78/72 45/66/60
f 46/67/61 47/68/62 59/80/74
f 59/80/74 58/79/73 46/67/61
f 47/68/62 48/69/63 60/81/75
f 60/81/75 59/80/74 47/68/62
f 48/69/63 49/70/64 61/82/76
f 61/82/76 60/81/75 48/69/63
f 49/70/64 50/71/65 62/83/77
f 62/83/77 61/82/76 49/70/64
f 50/71/65 51/72/66 63/84/78
f 63/84/78 62/83/77 50/71/65
f 51/72/66 52/73/67 64/85/79
f 64/85/79 63/84/78 51/72/66
f 52/73/67 53/74/68 65/86/80
f 65/86/80 64/85/79 52/73/67
f 54/87/70 55/88/69 56/89/71
f 57/90/72 58/91/73 59/92/74
f 59/92/74 60/93/75 61/94/76
f 62/95/77 63/96/78 64/97/79
f 64/97/79 65/98/80 66/99/81
f 62/95/77 64/97/79 66/99/81
f 61/94/76 62/95/77 66/99/81
f 59/92/74 61/94/76 66/99/81
f 57/90/72 59/92/74 66/99/81
f 56/89/71 57/90/72 66/99/81
f 54/87/70 56/89/71 66/99/81
f 5/100/31 4/101/29 69/102/27
f 3/103/25 70/104/23 71/105/21
f 71/105/21 2/106/19 72/107/17
f 1/108/15 73/109/13 74/110/10
f 74/110/10 68/111/9 67/112/82
f 1/108/15 74/110/10 67/112/82
f 72/107/17 1/108/15 67/112/82
f 71/105/21 72/107/17 67/112/82
f 3/103/25 71/105/21 67/112/82
f 69/102/27 3/103/25 67/112/82
f 5/100/31 69/102/27 67/112/82
